<svg viewBox="895 323.0639 383.4393 104.3722" width="5000" height="1361.0002939187507" xmlns="http://www.w3.org/2000/svg" xmlns:xlink="http://www.w3.org/1999/xlink" preserveAspectRatio="none"><defs></defs><style>.aIptOCySncolors-3 {fill:#270949;fill-opacity:1;}.aIptOCySncolors-4 {fill:#6B7ACC;fill-opacity:1;}.aIptOCySncolors-5 {fill:#987FC6;fill-opacity:1;}.aIptOCySncolors-6 {fill:#BFA0E9;fill-opacity:1;}.aIptOCySncolors-7 {fill:#BDBBF1;fill-opacity:1;}.background {fill:#FFFFFF;fill-opacity:1;}.companyName {fill:#270949;fill-opacity:1;}.icon1 {fill:#4654A3;fill-opacity:1;}.icon2 {fill:#F95B3D;fill-opacity:1;}.icon3 {fill:#FEB7C7;fill-opacity:1;}.icon3-str {stroke:#FEB7C7;stroke-opacity:1;}.shapeStroke-str {stroke:#4654A3;stroke-opacity:1;}.text {fill:#270949;fill-opacity:1;}</style><g opacity="1" transform="rotate(0 895 323.0639)">
<svg width="104.3722" height="104.3722" x="895" y="323.0639" version="1.1" preserveAspectRatio="none" viewBox="0 0 104.3722 104.3722">
  <defs><rect x="0" y="0" width="104.3722" height="104.3722" rx="150px" ry="150px" id="id-3WKIowxM3"></rect></defs><use class="icon1 shapeStroke-str" style="stroke-width:0;" xlink:href="#id-3WKIowxM3"></use>
</svg>
</g><g opacity="1" transform="rotate(0 913.4656 338.7197)">
<svg width="67.441" height="73.0606" x="913.4656" y="338.7197" version="1.1" preserveAspectRatio="none" viewBox="27.999990463256836 22 144.0010223388672 156.00001525878906">
  <g transform="matrix(1 0 0 1 0 0)"><g><path d="M168.853 112.502a2.86 2.86 0 0 0 .175-.984c1.929-3.444 2.973-7.267 2.973-11.229 0-6.442-2.656-12.498-7.356-16.922a22.945 22.945 0 0 0 1.157-7.22c0-8.387-4.458-15.967-11.755-20.197-.485-8.901-6.405-16.555-14.939-19.486a3.007 3.007 0 0 0-.597-.457c-3.368-8.221-11.651-13.815-20.812-13.815-6.968 0-13.392 3.166-17.601 8.414C95.908 25.266 89.357 22 82.302 22c-9.269 0-17.648 5.721-20.937 14.101-8.791 2.805-14.917 10.59-15.411 19.657-7.297 4.23-11.755 11.81-11.755 20.197 0 2.474.388 4.894 1.157 7.22C30.656 87.598 28 93.654 28 100.096c0 4.212 1.139 8.283 3.313 11.891A22.922 22.922 0 0 0 28 123.877c0 5.796 2.131 11.277 6.03 15.58-.022.418-.031.837-.031 1.259 0 12.945 9.943 24.002 22.9 25.79 5.111 7.103 13.315 11.3 22.231 11.3 8.034 0 15.656-3.55 20.787-9.466 5.13 6.034 12.818 9.66 20.953 9.66 8.914 0 17.119-4.197 22.231-11.3 12.957-1.791 22.9-12.847 22.9-25.79 0-.422-.01-.843-.031-1.259 3.899-4.303 6.03-9.784 6.03-15.58 0-4.09-1.094-8.041-3.147-11.569zM79.13 171.91c-7.326 0-14.037-3.645-17.952-9.748a3.027 3.027 0 0 0-2.3-1.37c-10.575-.866-18.857-9.684-18.857-20.077 0-.687.035-1.366.104-2.038a2.905 2.905 0 0 0-.861-2.372c-3.38-3.328-5.242-7.74-5.242-12.429 0-2.513.581-4.947 1.626-7.205 3.124 2.961 7.948 5.522 15.4 5.522 2.266 0 4.776-.238 7.548-.772 1.633-.315 2.696-1.864 2.374-3.46-.322-1.601-1.921-2.643-3.535-2.324-8.916 1.72-15.325.111-19.04-4.771a2.97 2.97 0 0 0-1.268-.953c-2.016-2.923-3.106-6.299-3.106-9.816 0-5.368 2.464-10.379 6.762-13.749a2.906 2.906 0 0 0 .886-3.461 17.207 17.207 0 0 1-1.449-6.931c0-6.63 3.737-12.571 9.757-15.619 7.215-1.308 12.777-.427 16.516 2.662 5.828 4.812 5.711 13.635 5.707 13.825-.049 1.625 1.257 2.982 2.917 3.031l.094.001c1.619 0 2.958-1.261 3.007-2.858.016-.477.274-11.765-7.801-18.472-4.54-3.771-10.662-5.256-18.206-4.466 1.138-6.133 5.838-11.153 12.211-12.687.031-.007.057-.025.087-.033.147-.041.295-.081.438-.145 3.617-1.602 8.836 2.758 10.384 4.417a3.03 3.03 0 0 0 2.231.969c.721 0 1.443-.251 2.019-.762a2.906 2.906 0 0 0 .214-4.164c-.27-.293-5.166-5.519-11.135-6.545 2.991-4.387 8.084-7.214 13.638-7.214 6.247 0 11.932 3.513 14.688 8.968v31.483c-3.939-1.921-8.031-1.626-8.291-1.605-1.649.141-2.864 1.557-2.731 3.173s1.553 2.826 3.235 2.702c.236-.017 5.467-.338 7.787 3.427v55.049a27.38 27.38 0 0 0-16.93-6.559c-1.631-.086-3.054 1.219-3.111 2.846-.057 1.627 1.245 2.99 2.907 3.046 6.768.224 12.874 3.554 16.688 8.947a26.16 26.16 0 0 0-2.902 11.968c0 4.087.963 8.107 2.788 11.747-3.97 5.533-10.307 8.822-17.296 8.822zm81.605-35.415a2.915 2.915 0 0 0-.861 2.374c.069.672.104 1.351.104 2.04 0 10.391-8.283 19.209-18.857 20.077a3.027 3.027 0 0 0-2.3 1.37c-3.917 6.103-10.628 9.748-17.952 9.748-7.479 0-14.486-3.925-18.287-10.241a20.418 20.418 0 0 1-2.919-10.521 20.36 20.36 0 0 1 2.994-10.632c3.719-6.078 10.257-9.851 17.487-10.091 1.662-.056 2.964-1.418 2.907-3.046-.057-1.627-1.441-2.908-3.111-2.846a27.423 27.423 0 0 0-16.928 6.564V76.039c2.279-3.732 7.149-3.439 7.405-3.423 1.655.12 3.105-1.055 3.256-2.671.151-1.621-1.07-3.055-2.727-3.202-.251-.024-4.13-.32-7.934 1.546V36.908c.059-.086.124-.164.174-.257 2.854-5.282 8.414-8.564 14.511-8.564 5.541 0 10.625 2.813 13.618 7.181-5.652 1.285-10.202 6.104-10.462 6.386a2.902 2.902 0 0 0 .21 4.157 3.04 3.04 0 0 0 2.023.765c.818 0 1.635-.324 2.229-.962 1.347-1.445 5.488-4.949 8.925-4.76.37.339.825.588 1.334.711 6.269 1.509 10.912 6.394 12.141 12.463-7.346-.688-13.331.8-17.781 4.498-8.075 6.706-7.816 17.994-7.801 18.471.049 1.597 1.388 2.858 3.007 2.858l.094-.001c1.662-.05 2.968-1.41 2.917-3.037-.002-.088-.208-8.905 5.677-13.794 3.581-2.976 8.85-3.908 15.643-2.83.081.049.148.116.234.158 6.213 2.995 10.071 9.048 10.071 15.797 0 2.4-.488 4.732-1.449 6.931a2.906 2.906 0 0 0 .886 3.461c4.297 3.37 6.762 8.381 6.762 13.749 0 3.66-1.153 7.181-3.331 10.182a2.928 2.928 0 0 0-.418.822c-3.83 3.665-9.748 4.763-17.657 3.244-1.621-.321-3.213.724-3.535 2.324-.322 1.597.741 3.146 2.374 3.46 2.774.534 5.281.772 7.55.772 6.084 0 10.414-1.713 13.506-3.95.964 2.182 1.511 4.516 1.511 6.926.003 4.69-1.86 9.102-5.24 12.426z" data-color="1" class="background"></path><path d="M58.597 136.011c.335.117.678.173 1.016.173 1.235 0 2.394-.75 2.835-1.954.222-.608 5.577-14.903 18.926-12.538 1.627.278 3.203-.775 3.499-2.378.294-1.603-.792-3.136-2.429-3.426-14.619-2.579-23.184 9.567-25.666 16.354-.561 1.533.252 3.22 1.819 3.769z" data-color="1" class="background"></path><path d="M137.422 133.038c.441 1.203 1.6 1.954 2.835 1.954.337 0 .68-.056 1.016-.173 1.566-.549 2.38-2.236 1.819-3.769-2.484-6.786-11.031-18.948-25.666-16.354-1.637.29-2.723 1.823-2.429 3.426.296 1.603 1.876 2.654 3.499 2.378 13.225-2.355 18.702 11.938 18.926 12.538z" data-color="1" class="background"></path><path d="M68.91 145.481c-6.011-4.898-12.915-4.249-13.217-4.22-1.645.171-2.831 1.606-2.67 3.217.159 1.614 1.649 2.779 3.278 2.65.202-.019 4.807-.384 8.83 2.946 3.505 2.9 5.554 7.773 6.087 14.481.122 1.545 1.441 2.72 2.998 2.72.078 0 .159-.002.237-.01 1.659-.125 2.898-1.543 2.768-3.167-.667-8.403-3.464-14.666-8.311-18.617z" data-color="1" class="background"></path><path d="M145.024 140.556c-.292-.025-7.203-.677-13.215 4.222-4.846 3.95-7.644 10.214-8.31 18.616-.129 1.624 1.11 3.042 2.768 3.167.078.008.159.01.237.01 1.557 0 2.876-1.175 2.998-2.72.533-6.708 2.582-11.581 6.089-14.482 4.009-3.318 8.61-2.967 8.826-2.946 1.649.148 3.117-1.015 3.29-2.627.172-1.618-1.028-3.069-2.683-3.24z" data-color="1" class="background"></path><path d="M77.076 97.143c.083-.243.12-.488.137-.732 4.839-1.085 9.146-3.909 11.994-8.035a19.068 19.068 0 0 0 2.652-5.61c.449-1.568-.486-3.195-2.088-3.633-1.604-.442-3.262.477-3.711 2.044a13.285 13.285 0 0 1-1.845 3.899c-2.57 3.724-6.84 5.948-11.422 5.948-7.595 0-13.774-6.048-13.774-13.483 0-1.628-1.349-2.948-3.011-2.948-1.662 0-3.011 1.319-3.011 2.948 0 10.013 7.797 18.275 17.759 19.277-3.361 7.481-9.937 6.923-10.732 6.822-1.645-.218-3.154.892-3.392 2.496-.239 1.611.9 3.107 2.547 3.341.52.074 1.106.116 1.741.116 4.897-.001 12.772-2.513 16.156-12.45z" data-color="1" class="background"></path><path d="M122.964 97.143c3.384 9.938 11.259 12.449 16.156 12.449.635 0 1.221-.042 1.741-.116 1.635-.233 2.76-1.711 2.537-3.314-.223-1.604-1.729-2.718-3.378-2.525-.789.102-7.373.67-10.738-6.826 9.944-1.018 17.721-9.271 17.721-19.271 0-1.628-1.349-2.948-3.011-2.948-1.662 0-3.011 1.319-3.011 2.948 0 7.435-6.177 13.483-13.772 13.483-4.584 0-8.853-2.223-11.423-5.949a13.19 13.19 0 0 1-1.841-3.895c-.449-1.57-2.115-2.486-3.709-2.048-1.604.437-2.539 2.062-2.094 3.631.57 2 1.464 3.889 2.654 5.613 2.853 4.137 7.175 6.963 12.032 8.042.016.243.054.486.136.726z" data-color="1" class="background"></path></g></g>
</svg>
</g><g opacity="1" transform="rotate(0 1013.0937 405.8646)">
<svg width="265.0051" height="15" x="1013.0937" y="405.8646" version="1.1" preserveAspectRatio="none" viewBox="1.96 -31.56 741.32 41.959999999999994">
  <g transform="matrix(1 0 0 1 0 0)" class="text"><path id="id-6izo4zJp32" d="M20.76-7.32Q20.76-5.32 19.80-3.60Q18.84-1.88 16.88-0.80Q14.92 0.28 12.04 0.28L12.04 0.28Q9.24 0.28 7.06-0.74Q4.88-1.76 3.58-3.54Q2.28-5.32 2.08-7.60L2.08-7.60L5.96-7.60Q6.08-6.40 6.78-5.26Q7.48-4.12 8.78-3.38Q10.08-2.64 11.92-2.64L11.92-2.64Q14.32-2.64 15.60-3.92Q16.88-5.20 16.88-7.20L16.88-7.20Q16.88-8.92 15.98-10Q15.08-11.08 13.76-11.70Q12.44-12.32 10.16-13.04L10.16-13.04Q7.48-13.92 5.86-14.70Q4.24-15.48 3.10-17.04Q1.96-18.60 1.96-21.16L1.96-21.16Q1.96-23.36 3.02-25.04Q4.08-26.72 6.06-27.64Q8.04-28.56 10.72-28.56L10.72-28.56Q14.88-28.56 17.32-26.54Q19.76-24.52 20.16-21.40L20.16-21.40L16.24-21.40Q15.92-23.08 14.52-24.36Q13.12-25.64 10.72-25.64L10.72-25.64Q8.52-25.64 7.20-24.50Q5.88-23.36 5.88-21.28L5.88-21.28Q5.88-19.64 6.74-18.62Q7.60-17.60 8.88-17.02Q10.16-16.44 12.40-15.72L12.40-15.72Q15.12-14.84 16.78-14.04Q18.44-13.24 19.60-11.62Q20.76-10 20.76-7.32L20.76-7.32Z M38.64-22.24Q41.84-22.24 44.06-20.64Q46.28-19.04 47.16-16.36L47.16-16.36L47.16-21.96L50.80-21.96L50.80 0L47.16 0L47.16-5.60Q46.28-2.92 44.06-1.32Q41.84 0.28 38.64 0.28L38.64 0.28Q35.72 0.28 33.44-1.08Q31.16-2.44 29.86-4.98Q28.56-7.52 28.56-10.96L28.56-10.96Q28.56-14.40 29.86-16.96Q31.16-19.52 33.44-20.88Q35.72-22.24 38.64-22.24L38.64-22.24ZM39.68-19Q36.32-19 34.30-16.86Q32.28-14.72 32.28-10.96L32.28-10.96Q32.28-7.20 34.30-5.06Q36.32-2.92 39.68-2.92L39.68-2.92Q41.84-2.92 43.54-3.92Q45.24-4.92 46.20-6.74Q47.16-8.56 47.16-10.96L47.16-10.96Q47.16-13.36 46.20-15.20Q45.24-17.04 43.54-18.02Q41.84-19 39.68-19L39.68-19Z M70.32-27.16Q67.40-27.20 66.26-26.16Q65.12-25.12 65.12-22.56L65.12-22.56L65.12-21.96L70.32-21.96L70.32-18.76L65.12-18.76L65.12 0L61.48 0L61.48-18.76L58.32-18.76L58.32-21.96L61.48-21.96L61.48-22.84Q61.48-30.72 70.32-30.36L70.32-30.36L70.32-27.16Z M98.48-12.20Q98.48-11.04 98.32-10.20L98.32-10.20L80.76-10.20Q80.88-6.44 82.90-4.56Q84.92-2.68 87.84-2.68L87.84-2.68Q90.48-2.68 92.26-4.02Q94.04-5.36 94.44-7.60L94.44-7.60L98.32-7.60Q97.92-5.32 96.54-3.52Q95.16-1.72 92.96-0.72Q90.76 0.28 88 0.28L88 0.28Q84.84 0.28 82.40-1.08Q79.96-2.44 78.58-4.98Q77.20-7.52 77.20-10.96L77.20-10.96Q77.20-14.40 78.58-16.96Q79.96-19.52 82.40-20.88Q84.84-22.24 88-22.24L88-22.24Q91.20-22.24 93.58-20.88Q95.96-19.52 97.22-17.24Q98.48-14.96 98.48-12.20L98.48-12.20ZM94.80-11.96Q94.92-14.40 94-16.04Q93.08-17.68 91.48-18.48Q89.88-19.28 88-19.28L88-19.28Q85-19.28 82.96-17.42Q80.92-15.56 80.76-11.96L80.76-11.96L94.80-11.96Z M140 0L137.64-6.52L125.24-6.52L122.88 0L118.96 0L129.40-27.68L133.52-27.68L143.92 0L140 0ZM126.28-9.36L136.60-9.36L131.44-23.60L126.28-9.36Z M151.60-28.20L155.24-28.20L155.24 0L151.60 0L151.60-28.20Z M182.60-28.20L182.60-2.84L192.60-2.84L192.60 0L178.96 0L178.96-28.20L182.60-28.20Z M209.32-22.24Q212.52-22.24 214.74-20.64Q216.96-19.04 217.84-16.36L217.84-16.36L217.84-21.96L221.48-21.96L221.48 0L217.84 0L217.84-5.60Q216.96-2.92 214.74-1.32Q212.52 0.28 209.32 0.28L209.32 0.28Q206.40 0.28 204.12-1.08Q201.84-2.44 200.54-4.98Q199.24-7.52 199.24-10.96L199.24-10.96Q199.24-14.40 200.54-16.96Q201.84-19.52 204.12-20.88Q206.40-22.24 209.32-22.24L209.32-22.24ZM210.36-19Q207.00-19 204.98-16.86Q202.96-14.72 202.96-10.96L202.96-10.96Q202.96-7.20 204.98-5.06Q207.00-2.92 210.36-2.92L210.36-2.92Q212.52-2.92 214.22-3.92Q215.92-4.92 216.88-6.74Q217.84-8.56 217.84-10.96L217.84-10.96Q217.84-13.36 216.88-15.20Q215.92-17.04 214.22-18.02Q212.52-19 210.36-19L210.36-19Z M243.40-22.24Q246.32-22.24 248.60-20.88Q250.88-19.52 252.18-16.96Q253.48-14.40 253.48-10.96L253.48-10.96Q253.48-7.52 252.18-4.98Q250.88-2.44 248.60-1.08Q246.32 0.28 243.40 0.28L243.40 0.28Q240.20 0.28 237.98-1.34Q235.76-2.96 234.92-5.60L234.92-5.60L234.92 0L231.28 0L231.28-29.60L234.92-29.60L234.92-16.36Q235.76-19 237.98-20.62Q240.20-22.24 243.40-22.24L243.40-22.24ZM242.36-19Q240.24-19 238.52-18.02Q236.80-17.04 235.84-15.20Q234.88-13.36 234.88-10.96L234.88-10.96Q234.88-8.56 235.84-6.74Q236.80-4.92 238.52-3.92Q240.24-2.92 242.36-2.92L242.36-2.92Q245.76-2.92 247.78-5.06Q249.80-7.20 249.80-10.96L249.80-10.96Q249.80-14.72 247.78-16.86Q245.76-19 242.36-19L242.36-19Z M298.04-31.56Q304.12-31.56 308.44-29.34Q312.76-27.12 315-23.04Q317.24-18.96 317.24-13.48L317.24-13.48Q317.24-9.60 315.88-6.42Q314.52-3.24 312.24-1.42Q309.96 0.40 307.32 0.40L307.32 0.40Q304.88 0.40 303.50-0.86Q302.12-2.12 302.28-4.96L302.28-4.96Q299.32 0.40 293.68 0.40L293.68 0.40Q291.20 0.40 289.26-0.80Q287.32-2 286.24-4.18Q285.16-6.36 285.16-9.24L285.16-9.24Q285.16-12.96 286.72-15.94Q288.28-18.92 290.98-20.62Q293.68-22.32 297-22.32L297-22.32Q299.92-22.32 302.04-21.16Q304.16-20 305.26-17.96Q306.36-15.92 306.36-13.32L306.36-13.32Q306.36-12.68 306.20-11.40L306.20-11.40L305.32-6.08Q305.24-5.28 305.24-5.04L305.24-5.04Q305.24-3.80 305.84-3.30Q306.44-2.80 307.56-2.80L307.56-2.80Q309.12-2.80 310.50-4.06Q311.88-5.32 312.70-7.72Q313.52-10.12 313.52-13.36L313.52-13.36Q313.52-17.92 311.68-21.32Q309.84-24.72 306.26-26.62Q302.68-28.52 297.56-28.52L297.56-28.52Q291.68-28.52 287.42-25.98Q283.16-23.44 280.94-19.06Q278.72-14.68 278.72-9.24L278.72-9.24Q278.72-1.24 283.22 2.94Q287.72 7.12 296 7.20L296 7.20L295.32 10.20Q285.72 10.04 280.42 5.06Q275.12 0.08 275.12-9.24L275.12-9.24Q275.12-15.56 278-20.66Q280.88-25.76 286.10-28.66Q291.32-31.56 298.04-31.56L298.04-31.56ZM294.80-2.80Q296.96-2.80 298.76-3.98Q300.56-5.16 301.64-7.38Q302.72-9.60 302.72-12.56L302.72-12.56Q302.72-15.60 301.08-17.34Q299.44-19.08 296.44-19.08L296.44-19.08Q294.24-19.08 292.46-17.92Q290.68-16.76 289.68-14.64Q288.68-12.52 288.68-9.72L288.68-9.72Q288.68-6.64 290.36-4.72Q292.04-2.80 294.80-2.80L294.80-2.80Z M352.12-28.48Q357.28-28.48 360.64-25.94Q364-23.40 365.28-19L365.28-19L361.44-19Q360.36-21.80 357.96-23.46Q355.56-25.12 352.08-25.12L352.08-25.12Q349.32-25.12 347.14-23.78Q344.96-22.44 343.70-19.94Q342.44-17.44 342.44-14.08L342.44-14.08Q342.44-10.76 343.70-8.28Q344.96-5.80 347.14-4.46Q349.32-3.12 352.08-3.12L352.08-3.12Q355.56-3.12 357.96-4.78Q360.36-6.44 361.44-9.24L361.44-9.24L365.28-9.24Q364-4.84 360.64-2.30Q357.28 0.24 352.12 0.24L352.12 0.24Q348.16 0.24 345.12-1.58Q342.08-3.40 340.38-6.66Q338.68-9.92 338.68-14.08L338.68-14.08Q338.68-18.28 340.38-21.56Q342.08-24.84 345.12-26.66Q348.16-28.48 352.12-28.48L352.12-28.48Z M383.16-22.24Q386.36-22.24 388.58-20.64Q390.80-19.04 391.68-16.36L391.68-16.36L391.68-21.96L395.32-21.96L395.32 0L391.68 0L391.68-5.60Q390.80-2.92 388.58-1.32Q386.36 0.28 383.16 0.28L383.16 0.28Q380.24 0.28 377.96-1.08Q375.68-2.44 374.38-4.98Q373.08-7.52 373.08-10.96L373.08-10.96Q373.08-14.40 374.38-16.96Q375.68-19.52 377.96-20.88Q380.24-22.24 383.16-22.24L383.16-22.24ZM384.20-19Q380.84-19 378.82-16.86Q376.80-14.72 376.80-10.96L376.80-10.96Q376.80-7.20 378.82-5.06Q380.84-2.92 384.20-2.92L384.20-2.92Q386.36-2.92 388.06-3.92Q389.76-4.92 390.72-6.74Q391.68-8.56 391.68-10.96L391.68-10.96Q391.68-13.36 390.72-15.20Q389.76-17.04 388.06-18.02Q386.36-19 384.20-19L384.20-19Z M408.76-17.52Q409.84-19.80 411.92-21.06Q414.00-22.32 416.88-22.32L416.88-22.32L416.88-18.36L415.76-18.36Q412.68-18.36 410.72-16.78Q408.76-15.20 408.76-11.56L408.76-11.56L408.76 0L405.12 0L405.12-21.96L408.76-21.96L408.76-17.52Z M433.48-22.24Q436.68-22.24 438.90-20.64Q441.12-19.04 442.00-16.36L442.00-16.36L442.00-29.60L445.64-29.60L445.64 0L442.00 0L442.00-5.60Q441.12-2.92 438.90-1.32Q436.68 0.28 433.48 0.28L433.48 0.28Q430.56 0.28 428.28-1.08Q426.00-2.44 424.70-4.98Q423.40-7.52 423.40-10.96L423.40-10.96Q423.40-14.40 424.70-16.96Q426.00-19.52 428.28-20.88Q430.56-22.24 433.48-22.24L433.48-22.24ZM434.52-19Q431.16-19 429.14-16.86Q427.12-14.72 427.12-10.96L427.12-10.96Q427.12-7.20 429.14-5.06Q431.16-2.92 434.52-2.92L434.52-2.92Q436.68-2.92 438.38-3.92Q440.08-4.92 441.04-6.74Q442.00-8.56 442.00-10.96L442.00-10.96Q442.00-13.36 441.04-15.20Q440.08-17.04 438.38-18.02Q436.68-19 434.52-19L434.52-19Z M454.80-28.40Q454.80-29.40 455.48-30.02Q456.16-30.64 457.28-30.64L457.28-30.64Q458.40-30.64 459.08-30.02Q459.76-29.40 459.76-28.40L459.76-28.40Q459.76-27.40 459.08-26.78Q458.40-26.16 457.28-26.16L457.28-26.16Q456.16-26.16 455.48-26.78Q454.80-27.40 454.80-28.40L454.80-28.40ZM455.44-21.96L459.08-21.96L459.08 0L455.44 0L455.44-21.96Z M478.64-27.16Q475.72-27.20 474.58-26.16Q473.44-25.12 473.44-22.56L473.44-22.56L473.44-21.96L478.64-21.96L478.64-18.76L473.44-18.76L473.44 0L469.80 0L469.80-18.76L466.64-18.76L466.64-21.96L469.80-21.96L469.80-22.84Q469.80-30.72 478.64-30.36L478.64-30.36L478.64-27.16Z M496.32-27.16Q493.40-27.20 492.26-26.16Q491.12-25.12 491.12-22.56L491.12-22.56L491.12-21.96L496.32-21.96L496.32-18.76L491.12-18.76L491.12 0L487.48 0L487.48-18.76L484.32-18.76L484.32-21.96L487.48-21.96L487.48-22.84Q487.48-30.72 496.32-30.36L496.32-30.36L496.32-27.16Z M517.96-28.20L521.60-28.20L521.60-11.28Q521.60-7.12 523.44-5.14Q525.28-3.16 528.52-3.16L528.52-3.16Q531.72-3.16 533.52-5.16Q535.32-7.16 535.32-11.28L535.32-11.28L535.32-28.20L538.96-28.20L538.96-11.28Q538.96-5.52 536.10-2.62Q533.24 0.28 528.44 0.28L528.44 0.28Q523.68 0.28 520.82-2.62Q517.96-5.52 517.96-11.28L517.96-11.28L517.96-28.20Z M560.16-22.32Q564.00-22.32 566.36-19.86Q568.72-17.40 568.72-12.76L568.72-12.76L568.72 0L565.08 0L565.08-12.44Q565.08-15.72 563.40-17.48Q561.72-19.24 558.84-19.24L558.84-19.24Q555.84-19.24 554.04-17.30Q552.24-15.36 552.24-11.64L552.24-11.64L552.24 0L548.60 0L548.60-21.96L552.24-21.96L552.24-16.76Q553.08-19.44 555.22-20.88Q557.36-22.32 560.16-22.32L560.16-22.32Z M577.68-28.40Q577.68-29.40 578.36-30.02Q579.04-30.64 580.16-30.64L580.16-30.64Q581.28-30.64 581.96-30.02Q582.64-29.40 582.64-28.40L582.64-28.40Q582.64-27.40 581.96-26.78Q581.28-26.16 580.16-26.16L580.16-26.16Q579.04-26.16 578.36-26.78Q577.68-27.40 577.68-28.40L577.68-28.40ZM578.32-21.96L581.96-21.96L581.96 0L578.32 0L578.32-21.96Z M593.44-21.96L600.32-3.88L607.12-21.96L611.04-21.96L602.44 0L598.12 0L589.52-21.96L593.44-21.96Z M638.80-12.20Q638.80-11.04 638.64-10.20L638.64-10.20L621.08-10.20Q621.20-6.44 623.22-4.56Q625.24-2.68 628.16-2.68L628.16-2.68Q630.80-2.68 632.58-4.02Q634.36-5.36 634.76-7.60L634.76-7.60L638.64-7.60Q638.24-5.32 636.86-3.52Q635.48-1.72 633.28-0.72Q631.08 0.28 628.32 0.28L628.32 0.28Q625.16 0.28 622.72-1.08Q620.28-2.44 618.90-4.98Q617.52-7.52 617.52-10.96L617.52-10.96Q617.52-14.40 618.90-16.96Q620.28-19.52 622.72-20.88Q625.16-22.24 628.32-22.24L628.32-22.24Q631.52-22.24 633.90-20.88Q636.28-19.52 637.54-17.24Q638.80-14.96 638.80-12.20L638.80-12.20ZM635.12-11.96Q635.24-14.40 634.32-16.04Q633.40-17.68 631.80-18.48Q630.20-19.28 628.32-19.28L628.32-19.28Q625.32-19.28 623.28-17.42Q621.24-15.56 621.08-11.96L621.08-11.96L635.12-11.96Z M651.20-17.52Q652.28-19.80 654.36-21.06Q656.44-22.32 659.32-22.32L659.32-22.32L659.32-18.36L658.20-18.36Q655.12-18.36 653.16-16.78Q651.20-15.20 651.20-11.56L651.20-11.56L651.20 0L647.56 0L647.56-21.96L651.20-21.96L651.20-17.52Z M673.80-22.24Q677.52-22.24 679.78-20.30Q682.04-18.36 682.52-15.08L682.52-15.08L679.04-15.08Q678.80-17.04 677.42-18.30Q676.04-19.56 673.72-19.56L673.72-19.56Q671.76-19.56 670.66-18.62Q669.56-17.68 669.56-16.08L669.56-16.08Q669.56-14.88 670.30-14.14Q671.04-13.40 672.14-13.02Q673.24-12.64 675.16-12.20L675.16-12.20Q677.60-11.64 679.10-11.06Q680.60-10.48 681.66-9.20Q682.72-7.92 682.72-5.76L682.72-5.76Q682.72-3.08 680.70-1.40Q678.68 0.28 675.32 0.28L675.32 0.28Q671.40 0.28 668.92-1.60Q666.44-3.48 666.00-6.84L666.00-6.84L669.52-6.84Q669.72-4.84 671.26-3.60Q672.80-2.36 675.32-2.36L675.32-2.36Q677.20-2.36 678.26-3.32Q679.32-4.28 679.32-5.84L679.32-5.84Q679.32-7.12 678.56-7.88Q677.80-8.64 676.68-9.04Q675.56-9.44 673.60-9.88L673.60-9.88Q671.16-10.44 669.70-11Q668.24-11.56 667.22-12.78Q666.20-14 666.20-16.08L666.20-16.08Q666.20-18.84 668.24-20.54Q670.28-22.24 673.80-22.24L673.80-22.24Z M690.96-28.40Q690.96-29.40 691.64-30.02Q692.32-30.64 693.44-30.64L693.44-30.64Q694.56-30.64 695.24-30.02Q695.92-29.40 695.92-28.40L695.92-28.40Q695.92-27.40 695.24-26.78Q694.56-26.16 693.44-26.16L693.44-26.16Q692.32-26.16 691.64-26.78Q690.96-27.40 690.96-28.40L690.96-28.40ZM691.60-21.96L695.24-21.96L695.24 0L691.60 0L691.60-21.96Z M713.32-3.20L715.56-3.20L715.56 0L712.84 0Q709.48 0 707.82-1.60Q706.16-3.20 706.16-6.96L706.16-6.96L706.16-18.80L702.88-18.80L702.88-21.96L706.16-21.96L706.16-27.44L709.84-27.44L709.84-21.96L715.52-21.96L715.52-18.80L709.84-18.80L709.84-6.88Q709.84-4.76 710.62-3.98Q711.40-3.20 713.32-3.20L713.32-3.20Z M721.44-21.96L725.52-21.96L732.64-4.68L739.24-21.96L743.28-21.96L730.24 10.40L726.12 10.40L730.68-0.36L721.44-21.96Z"/></g>
</svg>
</g><g opacity="1" transform="rotate(0 1012.7533 338.7197)">
<svg width="265.686" height="53.5243" x="1012.7533" y="338.7197" version="1.1" preserveAspectRatio="none" viewBox="1.52 -29.6 148.32 29.880000000000003">
  <g transform="matrix(1 0 0 1 0 0)" class="companyName"><path id="id-D6z1nYkh7" d="M22.68-7.96Q22.68-5.72 21.54-3.84Q20.40-1.96 18.18-0.84Q15.96 0.28 12.80 0.28L12.80 0.28Q8.04 0.28 4.96-2.04Q1.88-4.36 1.60-8.52L1.60-8.52L8.88-8.52Q9.04-6.92 10.02-6Q11-5.08 12.52-5.08L12.52-5.08Q13.84-5.08 14.60-5.80Q15.36-6.52 15.36-7.72L15.36-7.72Q15.36-8.80 14.66-9.52Q13.96-10.24 12.92-10.70Q11.88-11.16 10.04-11.80L10.04-11.80Q7.36-12.72 5.66-13.58Q3.96-14.44 2.74-16.14Q1.52-17.84 1.52-20.56L1.52-20.56Q1.52-23.08 2.80-24.92Q4.08-26.76 6.34-27.74Q8.60-28.72 11.52-28.72L11.52-28.72Q16.24-28.72 19.02-26.48Q21.80-24.24 22.16-20.32L22.16-20.32L14.76-20.32Q14.56-21.72 13.74-22.54Q12.92-23.36 11.52-23.36L11.52-23.36Q10.32-23.36 9.58-22.72Q8.84-22.08 8.84-20.84L8.84-20.84Q8.84-19.84 9.50-19.14Q10.16-18.44 11.16-18Q12.16-17.56 14.04-16.88L14.04-16.88Q16.76-15.96 18.48-15.06Q20.20-14.16 21.44-12.44Q22.68-10.72 22.68-7.96L22.68-7.96Z M46.56 0L44.80-5.16L34.20-5.16L32.44 0L25.24 0L35.60-28.08L43.48-28.08L53.84 0L46.56 0ZM35.96-10.36L43.04-10.36L39.52-20.76L35.96-10.36Z M57.28-28.28L64.12-28.28L64.12 0L57.28 0L57.28-28.28Z M85.28-28.28L85.28-5.24L94.40-5.24L94.40 0L78.44 0L78.44-28.28L85.28-28.28Z M106.84-22.60Q109.40-22.60 111.24-21.44Q113.08-20.28 113.96-18.28L113.96-18.28L113.96-22.32L120.76-22.32L120.76 0L113.96 0L113.96-4.04Q113.08-2.04 111.24-0.88Q109.40 0.28 106.84 0.28L106.84 0.28Q104.08 0.28 101.90-1.10Q99.72-2.48 98.46-5.08Q97.20-7.68 97.20-11.16L97.20-11.16Q97.20-14.68 98.46-17.26Q99.72-19.84 101.90-21.22Q104.08-22.60 106.84-22.60L106.84-22.60ZM109.04-16.60Q106.84-16.60 105.50-15.16Q104.16-13.72 104.16-11.16L104.16-11.16Q104.16-8.60 105.50-7.16Q106.84-5.72 109.04-5.72L109.04-5.72Q111.20-5.72 112.58-7.20Q113.96-8.68 113.96-11.16L113.96-11.16Q113.96-13.68 112.58-15.14Q111.20-16.60 109.04-16.60L109.04-16.60Z M140.20-22.60Q142.96-22.60 145.14-21.22Q147.32-19.84 148.58-17.26Q149.84-14.68 149.84-11.16L149.84-11.16Q149.84-7.68 148.58-5.08Q147.32-2.48 145.14-1.10Q142.96 0.28 140.20 0.28L140.20 0.28Q137.64 0.28 135.80-0.88Q133.96-2.04 133.12-4.04L133.12-4.04L133.12 0L126.28 0L126.28-29.60L133.12-29.60L133.12-18.28Q133.96-20.28 135.80-21.44Q137.64-22.60 140.20-22.60L140.20-22.60ZM138-16.60Q135.84-16.60 134.46-15.14Q133.08-13.68 133.08-11.16L133.08-11.16Q133.08-8.68 134.46-7.20Q135.84-5.72 138-5.72L138-5.72Q140.20-5.72 141.54-7.16Q142.88-8.60 142.88-11.16L142.88-11.16Q142.88-13.72 141.54-15.16Q140.20-16.60 138-16.60L138-16.60Z"/></g>
</svg>
</g></svg>